<?xml version="1.0" encoding="UTF-8"?>
<svg id="Farben_auf_Schriften" data-name="Farben auf Schriften" xmlns="http://www.w3.org/2000/svg" viewBox="0 0 679 649">
  <defs>
    <style>
      .cls-1 {
        letter-spacing: 0em;
      }

      .cls-2 {
        fill: #fa7926;
      }

      .cls-2, .cls-3 {
        stroke-width: 0px;
      }

      .cls-4 {
        letter-spacing: -.01em;
      }

      .cls-3, .cls-5, .cls-6 {
        fill: #f8f0dd;
      }

      .cls-7 {
        letter-spacing: -.04em;
      }

      .cls-8 {
        letter-spacing: -.04em;
      }

      .cls-5 {
        font-family: DeliusSwashCaps-Regular, 'Delius Swash Caps';
        font-size: 120.76px;
      }

      .cls-6 {
        font-family: Kolage-Light, Kolage;
        font-size: 64.27px;
        font-variation-settings: 'wght' 300;
        font-weight: 300;
      }
    </style>
  </defs>
  <text class="cls-5" transform="translate(56.28 497.33)"><tspan class="cls-1" x="0" y="0">A</tspan><tspan class="cls-4" x="97.58" y="0">t</tspan><tspan x="136.95" y="0">e</tspan><tspan class="cls-7" x="202.04" y="0">m</tspan><tspan class="cls-8" x="303.6" y="0">W</tspan><tspan x="427.14" y="0">elt</tspan></text>
  <g>
    <path class="cls-3" d="m358.81,256.62c2.01,28.26-18.44,53.16-46.78,58.61,0,.01-.03.01-.04.01.11-.28.22-.57.32-.85.1-.24.18-.49.25-.73.16-.48.3-.96.43-1.43.04-.13.07-.24.11-.37.08-.29.15-.59.21-.88.1-.42.2-.84.26-1.25.02-.09.05-.2.06-.29.1-.53.17-1.03.24-1.53.06-.47.11-.94.15-1.38l.91-1.18.06-.08v-.02c1.06-1.69,2-3.47,2.8-5.36,4.75-11.16,3.84-23.01-1.45-32.09-3.43-5.91-8.7-10.65-15.47-13.25-14.8-5.71-31.91.6-41.35,14.26-.9,1.56-1.7,3.22-2.4,4.95-.2.5-.4,1.01-.58,1.51,0,0-.28.67-.59,1.53-.15.1-.3.24-.46.38-.01,0-.02,0-.03.02-15.6,10.82-17.77,32.89-7.19,50.78-8.65-9.93-15.27-29.22-16.14-41.39-.78-10.92.69-21.5,4.01-31.25.06-.17.11-.33.17-.49,7.08-20.36,19.51-32.42,31.32-39.52,13.68-8.23,26.53-9.83,29.25-10.03,32.02-2.28,59.75,20.69,61.93,51.31Z"/>
    <path class="cls-2" d="m470.66,124.46c-11.35,6.45-20.38,13.89-36.77-11.97-12.12-19.12-15.79-36.86-29.44-47.74-34.72-27.72-37.32,24.22-37.21,37.41.45,52.77,5.94,88.95,6.79,129.65,1.38,66.38-21.08,109.14-77.99,98.18,7.49,1.44,13.31-7.29,15.99-14.76,0,.01-.03.01-.04.01.11-.28.22-.57.32-.85.1-.24.18-.49.25-.73.16-.48.3-.96.43-1.43.11-.42.22-.83.32-1.25.09-.42.18-.83.26-1.25,4.25-22.89-19.86-42.85-42.93-38.5-5.99,1.01-11.05,3.09-15.16,5.96-.01,0-.02,0-.03.02-15.6,10.82-17.77,32.89-7.19,50.78,0,.01,0,.02.01.02,2.95,4.99,6.89,9.66,11.82,13.68,36,29.3,103.18,11.32,122.91-30.33,10.9-23.01,14.53-54.5,12.11-112.63-2.14-51.31,2.57-83.05,15.29-71.28,22.56,20.89,44.52,38.6,61.97,8.88,4.49-10.83.83-13.32-1.73-11.87Zm-176.38,191.58c-.2,1.4-.62,2.76-1.17,4-1.21,2.75-2.98,4.97-4.02,6.13-.51.56-.85.88-.85.88,0,0-3.18-2.27-5.53-5.82-1.25-1.89-2.26-4.15-2.43-6.63-.04-.59-.06-1.17-.05-1.73,0-6.38,2.6-11.47,6.17-11.73,3.22-.23,6.22,3.55,7.44,8.93,0,0,.01,0,.01.02.25,1.11.43,2.29.52,3.51.06.82.03,1.64-.09,2.44Z"/>
  </g>
  <text class="cls-6" transform="translate(171.28 587.24)"><tspan x="0" y="0">Klavierspielen</tspan></text>
</svg>