<?xml version="1.0" encoding="UTF-8" standalone="no"?>
<svg
   id="Logo"
   viewBox="0 0 744 361"
   version="1.1"
   sodipodi:docname="primär_mS-24.svg"
   inkscape:version="1.4 (86a8ad7, 2024-10-11)"
   xmlns:inkscape="http://www.inkscape.org/namespaces/inkscape"
   xmlns:sodipodi="http://sodipodi.sourceforge.net/DTD/sodipodi-0.dtd"
   xmlns="http://www.w3.org/2000/svg"
   xmlns:svg="http://www.w3.org/2000/svg">
  <sodipodi:namedview
     id="namedview7"
     pagecolor="#ffffff"
     bordercolor="#000000"
     borderopacity="0.25"
     inkscape:showpageshadow="2"
     inkscape:pageopacity="0.0"
     inkscape:pagecheckerboard="0"
     inkscape:deskcolor="#d1d1d1"
     showgrid="false"
     inkscape:zoom="1.8427419"
     inkscape:cx="372.54268"
     inkscape:cy="180.43764"
     inkscape:window-width="1920"
     inkscape:window-height="1009"
     inkscape:window-x="-8"
     inkscape:window-y="-8"
     inkscape:window-maximized="1"
     inkscape:current-layer="Logo" />
  <defs
     id="defs1">
    <style
       id="style1">
      .cls-1 {
        letter-spacing: -.04em;
      }

      .cls-2 {
        font-family: Kolage-Light, Kolage;
        font-size: 42.43px;
        font-variation-settings: 'wght' 300;
        font-weight: 300;
      }

      .cls-2, .cls-3 {
        fill: #b01929;
      }

      .cls-4 {
        fill: #fa7926;
        stroke-width: 0px;
      }

      .cls-5 {
        letter-spacing: -.04em;
      }

      .cls-3 {
        font-family: DeliusSwashCaps-Regular, 'Delius Swash Caps';
        font-size: 101.83px;
      }

      .cls-6 {
        letter-spacing: 0em;
      }

      .cls-7 {
        letter-spacing: -.01em;
      }
    </style>
  </defs>
  <text
     class="cls-3"
     id="text6"
     style="font-style:normal;font-variant:normal;font-weight:normal;font-stretch:normal;font-family:'Delius Swash Caps';-inkscape-font-specification:'Delius Swash Caps';stroke-width:0.997134"
     x="227.82584"
     y="224.99594"><tspan
       class="cls-6"
       x="227.82584"
       y="224.99594"
       id="tspan1"
       style="font-style:normal;font-variant:normal;font-weight:normal;font-stretch:normal;font-family:'Delius Swash Caps';-inkscape-font-specification:'Delius Swash Caps';stroke-width:0.997134">A</tspan><tspan
       class="cls-7"
       x="309.86996"
       y="224.99594"
       id="tspan2"
       style="font-style:normal;font-variant:normal;font-weight:normal;font-stretch:normal;font-family:'Delius Swash Caps';-inkscape-font-specification:'Delius Swash Caps';stroke-width:0.997134">t</tspan><tspan
       x="342.96484"
       y="224.99594"
       id="tspan3"
       style="font-style:normal;font-variant:normal;font-weight:normal;font-stretch:normal;font-family:'Delius Swash Caps';-inkscape-font-specification:'Delius Swash Caps';stroke-width:0.997134">e</tspan><tspan
       class="cls-1"
       x="397.69748"
       y="224.99594"
       id="tspan4"
       style="font-style:normal;font-variant:normal;font-weight:normal;font-stretch:normal;font-family:'Delius Swash Caps';-inkscape-font-specification:'Delius Swash Caps';stroke-width:0.997134">m</tspan><tspan
       class="cls-5"
       x="483.08206"
       y="224.99594"
       id="tspan5"
       style="font-style:normal;font-variant:normal;font-weight:normal;font-stretch:normal;font-family:'Delius Swash Caps';-inkscape-font-specification:'Delius Swash Caps';stroke-width:0.997134">W</tspan><tspan
       x="586.95343"
       y="224.99594"
       id="tspan6"
       style="font-style:normal;font-variant:normal;font-weight:normal;font-stretch:normal;font-family:'Delius Swash Caps';-inkscape-font-specification:'Delius Swash Caps';stroke-width:0.997134">elt</tspan></text>
  <path
     class="cls-4"
     d="m 153.92802,213.43952 c 1.72504,24.17056 -15.77462,45.47933 -40.02487,50.14592 0,0 -0.0299,0.01 -0.0299,0.01 0.0997,-0.23932 0.17949,-0.4886 0.26923,-0.72791 0.0798,-0.2094 0.14957,-0.4188 0.21937,-0.6282 0.1396,-0.40882 0.25925,-0.82762 0.36894,-1.22647 0.0399,-0.10969 0.0598,-0.2094 0.0897,-0.30912 0.0698,-0.24928 0.12963,-0.50854 0.17948,-0.75782 0.0898,-0.35897 0.16952,-0.71794 0.21937,-1.06693 0.02,-0.0798 0.0399,-0.16952 0.0499,-0.24929 0.0798,-0.44871 0.14957,-0.88745 0.19943,-1.30624 0.0499,-0.40883 0.0897,-0.79771 0.12962,-1.17662 l 0.77777,-1.00711 0.0498,-0.0598 v -0.0199 c 0.90739,-1.44585 1.71507,-2.97146 2.39312,-4.58682 4.05833,-9.55256 3.29053,-19.68345 -1.23644,-27.45113 -2.93157,-5.05548 -7.44858,-9.10384 -13.23195,-11.33743 -12.643625,-4.88596 -27.261579,0.49857 -35.348319,12.15508 -0.02991,0.0399 -0.04986,0.0598 -0.05983,0.0997 -0.757821,1.32619 -1.43587,2.72218 -2.024178,4.178 -0.169513,0.42877 -0.339025,0.86751 -0.498566,1.29628 0,0 -0.239312,0.57833 -0.498566,1.31621 -0.129627,0.0898 -0.259254,0.19943 -0.398853,0.32906 0,0 -0.01994,0 -0.01994,0.0199 -13.341626,9.26339 -15.196291,28.13915 -6.152305,43.44518 -7.398719,-8.4956 -13.062428,-24.99818 -13.800306,-35.40827 -0.668078,-9.34316 0.588308,-18.39714 3.430134,-26.73319 0.04986,-0.1396 0.08974,-0.28917 0.14957,-0.4188 6.052591,-17.41995 16.691989,-27.73032 26.792935,-33.80288 11.696358,-7.03977 22.694723,-8.41582 25.028004,-8.57536 27.39122,-1.95438 51.11299,17.69915 52.97762,43.89389 z"
     id="path6" />
  <path
     class="cls-4"
     d="m 249.61281,100.37438 c -9.71207,5.51415 -17.43984,11.87588 -31.45952,-10.240577 -10.37017,-16.362986 -13.51114,-31.52941 -25.18755,-40.842652 -29.70456,-23.711872 -31.92816,20.720467 -31.82845,32.008036 0.37891,45.150273 5.0754,76.101343 5.80331,110.921303 1.18658,56.78684 -18.03812,93.37172 -66.7181,83.99866 6.41156,1.23644 11.38725,-6.2321 13.68065,-12.62373 0,0 -0.0299,0.01 -0.0299,0.01 0.0997,-0.23932 0.17949,-0.4886 0.26923,-0.72791 0.0798,-0.2094 0.14957,-0.4188 0.21937,-0.6282 0.1396,-0.40882 0.25925,-0.82762 0.36894,-1.22647 0.0997,-0.35897 0.18945,-0.71794 0.26922,-1.06694 0.0798,-0.35897 0.14957,-0.70796 0.21937,-1.06693 3.63953,-19.58373 -16.991122,-36.66466 -36.724363,-32.93537 -5.125259,0.8675 -9.452811,2.6424 -12.962716,5.09536 0,0 -0.01994,0 -0.01994,0.0199 -13.341625,9.26338 -15.196291,28.13915 -6.152304,43.44517 0,0 0,0.0199 0,0.0199 2.522744,4.26773 5.89305,8.26625 10.110918,11.69639 30.801405,25.06798 88.276085,9.68218 105.157525,-25.94545 9.32319,-19.68345 12.43424,-46.62604 10.3602,-96.35316 -1.82475,-43.89389 2.20367,-71.055845 13.08238,-60.98478 18.48682,17.1208 36.505,31.74878 51.11298,10.58957 1.53558,-2.21364 2.72217,-4.67656 3.34039,-7.29903 1.31621,-5.61387 -1.11679,-6.870256 -2.91162,-5.85318 z M 98.716832,264.27347 c -0.169512,1.19656 -0.52848,2.36321 -0.997132,3.42017 -1.037017,2.35324 -2.552657,4.2478 -3.440105,5.24493 -0.438738,0.47863 -0.727906,0.74785 -0.727906,0.74785 0,0 -2.72217,-1.94441 -4.726406,-4.98567 -1.066931,-1.62533 -1.934435,-3.5498 -2.084005,-5.66373 -0.03989,-0.50854 -0.04986,-0.99714 -0.03989,-1.48573 0,-5.45433 2.223605,-9.81181 5.274828,-10.03118 2.762056,-0.19943 5.324685,3.04126 6.371673,7.63805 0,0 0,0 0,0.0199 0.219369,0.94728 0.368939,1.95438 0.438739,3.00137 0.04986,0.70797 0.01994,1.40596 -0.07977,2.08402 z"
     id="path7" />
  <text
     class="cls-2"
     id="text7"
     x="232.51236"
     y="279.03064"
     style="stroke-width:0.997134"><tspan
       x="232.51236"
       y="279.03064"
       id="tspan7"
       style="font-style:normal;font-variant:normal;font-weight:normal;font-stretch:normal;font-family:Kolage;-inkscape-font-specification:Kolage;stroke-width:0.997134">Finde deinen Rhythmus</tspan></text>
</svg>
