<?xml version="1.0" encoding="UTF-8" standalone="no"?>
<svg
   id="Farben_auf_Schriften"
   data-name="Farben auf Schriften"
   viewBox="0 0 744 361"
   version="1.1"
   sodipodi:docname="header_klavier.svg"
   inkscape:version="1.4 (86a8ad7, 2024-10-11)"
   xmlns:inkscape="http://www.inkscape.org/namespaces/inkscape"
   xmlns:sodipodi="http://sodipodi.sourceforge.net/DTD/sodipodi-0.dtd"
   xmlns="http://www.w3.org/2000/svg"
   xmlns:svg="http://www.w3.org/2000/svg">
  <sodipodi:namedview
     id="namedview7"
     pagecolor="#ffffff"
     bordercolor="#000000"
     borderopacity="0.25"
     inkscape:showpageshadow="2"
     inkscape:pageopacity="0.0"
     inkscape:pagecheckerboard="0"
     inkscape:deskcolor="#d1d1d1"
     inkscape:zoom="1.5807068"
     inkscape:cx="312.83473"
     inkscape:cy="148.98398"
     inkscape:window-width="1920"
     inkscape:window-height="1009"
     inkscape:window-x="-8"
     inkscape:window-y="-8"
     inkscape:window-maximized="1"
     inkscape:current-layer="Farben_auf_Schriften" />
  <defs
     id="defs1">
    <style
       id="style1">
      .cls-1 {
        font-family: Kolage-Light, Kolage;
        font-size: 42.31px;
        font-variation-settings: 'wght' 300;
        font-weight: 300;
      }

      .cls-1, .cls-2, .cls-3 {
        fill: #f8f0dd;
      }

      .cls-4 {
        letter-spacing: 0em;
      }

      .cls-5 {
        fill: #fa7926;
      }

      .cls-5, .cls-2 {
        stroke-width: 0px;
      }

      .cls-6 {
        letter-spacing: -.04em;
      }

      .cls-7 {
        letter-spacing: -.04em;
      }

      .cls-8 {
        letter-spacing: -.01em;
      }

      .cls-3 {
        font-family: DeliusSwashCaps-Regular, 'Delius Swash Caps';
        font-size: 101.54px;
      }
    </style>
  </defs>
  <text
     class="cls-3"
     id="text6"
     x="227.80928"
     y="225.00882"
     style="stroke-width:0.999995"><tspan
       class="cls-4"
       x="227.80928"
       y="225.00882"
       id="tspan1"
       style="font-style:normal;font-variant:normal;font-weight:normal;font-stretch:normal;font-family:'Delius Swash Caps';-inkscape-font-specification:'Delius Swash Caps';stroke-width:0.999995">AtemWelt</tspan></text>
  <path
     class="cls-2"
     d="m 153.91885,213.45 c 1.71999,24.18 -15.77983,45.48 -40.01957,50.14 0,0 -0.03,0.01 -0.03,0.01 0.1,-0.24 0.17999,-0.49 0.26999,-0.73 0.08,-0.21 0.15,-0.42 0.22,-0.63 0.14,-0.41 0.26,-0.82 0.37,-1.22 0.04,-0.11 0.06,-0.21 0.09,-0.31 0.07,-0.25 0.13,-0.51 0.17999,-0.76 0.09,-0.36 0.17,-0.72 0.22,-1.07 0.02,-0.08 0.04,-0.17 0.05,-0.25 0.08,-0.45 0.15,-0.89 0.2,-1.31 0.05,-0.41 0.09,-0.8 0.13,-1.18 l 0.77999,-1.01 0.05,-0.06 v -0.02 c 0.90999,-1.45 1.70998,-2.97 2.38997,-4.59 4.05996,-9.55 3.28997,-19.69 -1.23998,-27.46 -2.92997,-5.06 -7.43992,-9.11 -13.23986,-11.34 -12.649869,-4.88 -27.259715,0.5 -35.349629,12.16 -0.03,0.04 -0.05,0.06 -0.06,0.1 -0.749992,1.32 -1.429985,2.72 -2.019978,4.18 -0.169999,0.43 -0.339997,0.86 -0.489995,1.29 0,0 -0.239998,0.58 -0.499995,1.31 -0.119999,0.09 -0.259997,0.2 -0.399996,0.33 0,0 -0.02,0 -0.02,0.02 -13.339859,9.26 -15.199839,28.14 -6.149935,43.45 -7.399921,-8.5 -13.059862,-25 -13.799854,-35.41 -0.669993,-9.35 0.589994,-18.39 3.429964,-26.74 0.05,-0.14 0.09,-0.29 0.139998,-0.42 6.049937,-17.42 16.689824,-27.74 26.799717,-33.81 11.699877,-7.04 22.689761,-8.41 25.029733,-8.58 27.39971,-1.95 51.11946,17.7 52.97944,43.9 z"
     id="path6" />
  <path
     class="cls-5"
     d="M 249.59784,100.38 C 239.88795,105.9 232.15803,112.26 218.13818,90.14 207.76829,73.78 204.62832,58.61 192.95844,49.29 163.25876,25.58 161.02878,70.01 161.12878,81.3 c 0.37999,45.15 5.07994,76.1 5.80994,110.92 1.17998,56.79 -18.03981,93.37 -66.7193,84 6.40993,1.23 11.38988,-6.23 13.67986,-12.63 0,0 -0.03,0.01 -0.03,0.01 0.1,-0.24 0.17999,-0.49 0.26999,-0.73 0.08,-0.21 0.15,-0.42 0.22,-0.63 0.14,-0.41 0.26,-0.82 0.37,-1.22 0.1,-0.36 0.19,-0.71 0.26999,-1.07 0.08,-0.36 0.15,-0.71 0.22,-1.07 3.63996,-19.58 -16.989818,-36.66 -36.72961,-32.94 -5.129946,0.86 -9.4499,2.64 -12.969863,5.1 0,0 -0.02,0 -0.02,0.02 -13.339859,9.26 -15.199839,28.14 -6.149935,43.45 0,0 0,0.02 0,0.02 2.529974,4.27 5.899938,8.27 10.109894,11.7 30.799674,25.07 88.279064,9.68 105.158894,-25.95 9.3199,-19.69 12.42986,-46.62 10.35989,-96.36 -1.82998,-43.9 2.19997,-71.05 13.07986,-60.98 18.4898,17.12 36.50961,31.75 51.11946,10.59 1.52998,-2.22 2.71997,-4.68 3.33996,-7.3 1.31999,-5.62 -1.10999,-6.87 -2.91997,-5.85 z M 98.699437,264.28 c -0.169998,1.2 -0.529995,2.36 -0.99999,3.42 -1.039989,2.36 -2.549973,4.25 -3.439963,5.25 -0.439996,0.48 -0.719993,0.75 -0.719993,0.75 0,0 -2.719971,-1.94 -4.72995,-4.98 -1.069988,-1.62 -1.929979,-3.55 -2.079978,-5.67 -0.04,-0.5 -0.05,-1 -0.04,-1.48 0,-5.46 2.219976,-9.81 5.279944,-10.03 2.759971,-0.2 5.319944,3.04 6.369933,7.64 0,0 0,0 0,0.02 0.219997,0.95 0.369996,1.96 0.439995,3 0.05,0.7 0.02,1.41 -0.08,2.09 z"
     id="path7" />
  <text
     class="cls-1"
     id="text7"
     x="232.49925"
     y="279.04852"
     style="stroke-width:0.999995"><tspan
       x="232.49925"
       y="279.04852"
       id="tspan7"
       style="font-style:normal;font-variant:normal;font-weight:normal;font-stretch:normal;font-family:Kolage;-inkscape-font-specification:Kolage;stroke-width:0.999995">Klavierspielen</tspan></text>
</svg>
