<?xml version="1.0" encoding="UTF-8"?>
<svg id="Logo" xmlns="http://www.w3.org/2000/svg" viewBox="0 0 679 649">
  <defs>
    <style>
      .cls-1 {
        fill: #fa7926;
        stroke-width: 0px;
      }

      .cls-2 {
        letter-spacing: -.04em;
      }

      .cls-3 {
        font-family: DeliusSwashCaps-Regular, 'Delius Swash Caps';
        font-size: 121.28px;
      }

      .cls-3, .cls-4 {
        fill: #b01929;
      }

      .cls-4 {
        font-family: Kolage-Light, Kolage;
        font-size: 47px;
        font-variation-settings: 'wght' 300;
        font-weight: 300;
      }

      .cls-5 {
        letter-spacing: -.04em;
      }

      .cls-6 {
        letter-spacing: -.01em;
      }

      .cls-7 {
        letter-spacing: 0em;
      }
    </style>
  </defs>
  <text class="cls-3" transform="translate(55.57 513.89)"><tspan class="cls-7" x="0" y="0">A</tspan><tspan class="cls-6" x="98" y="0">t</tspan><tspan x="137.53" y="0">e</tspan><tspan class="cls-2" x="202.9" y="0">m</tspan><tspan class="cls-5" x="304.9" y="0">W</tspan><tspan x="428.97" y="0">elt</tspan></text>
  <g>
    <path class="cls-1" d="m359.4,272.16c2.02,28.38-18.52,53.38-46.98,58.86,0,.01-.03.01-.04.01.11-.29.22-.57.32-.85.1-.24.18-.5.26-.74.16-.48.3-.97.43-1.44.04-.13.08-.24.11-.37.08-.29.15-.6.21-.89.1-.42.2-.85.26-1.25.02-.09.05-.2.06-.29.1-.53.17-1.04.24-1.54.06-.48.11-.94.15-1.39l.91-1.18.06-.08v-.02c1.07-1.7,2.01-3.49,2.81-5.38,4.77-11.21,3.86-23.11-1.45-32.23-3.44-5.94-8.74-10.69-15.54-13.31-14.86-5.74-32.05.6-41.53,14.32-.9,1.57-1.71,3.23-2.41,4.97-.2.51-.4,1.01-.58,1.52,0,0-.28.68-.59,1.54-.15.1-.3.24-.47.38-.01,0-.02,0-.03.02-15.66,10.87-17.84,33.03-7.22,51-8.69-9.98-15.33-29.34-16.2-41.57-.78-10.97.69-21.59,4.03-31.39.06-.17.11-.34.17-.49,7.11-20.45,19.59-32.56,31.46-39.69,13.73-8.27,26.64-9.87,29.38-10.07,32.16-2.29,60,20.78,62.19,51.53Z"/>
    <path class="cls-1" d="m471.72,139.43c-11.4,6.48-20.47,13.95-36.93-12.02-12.17-19.2-15.86-37.01-29.56-47.95-34.87-27.84-37.48,24.32-37.37,37.57.45,53,5.96,89.33,6.82,130.21,1.39,66.66-21.17,109.6-78.32,98.6,7.53,1.45,13.37-7.32,16.06-14.82,0,.01-.03.01-.04.01.11-.29.22-.57.32-.85.1-.24.18-.5.26-.74.16-.48.3-.97.43-1.44.11-.42.22-.84.32-1.25.09-.42.18-.83.26-1.25,4.27-22.98-19.94-43.04-43.11-38.67-6.02,1.01-11.09,3.1-15.22,5.98-.01,0-.02,0-.03.02-15.66,10.87-17.84,33.03-7.22,51,0,.01,0,.02.01.02,2.97,5.01,6.92,9.7,11.87,13.73,36.15,29.43,103.63,11.37,123.44-30.46,10.95-23.11,14.59-54.73,12.16-113.11-2.15-51.53,2.58-83.4,15.36-71.58,22.65,20.98,44.71,38.77,62.24,8.92,4.51-10.88.84-13.38-1.74-11.92Zm-177.13,192.39c-.2,1.41-.62,2.78-1.17,4.02-1.22,2.77-2.99,4.99-4.04,6.16-.51.56-.85.88-.85.88,0,0-3.19-2.28-5.55-5.85-1.25-1.9-2.27-4.17-2.45-6.65-.04-.59-.06-1.18-.05-1.74,0-6.41,2.61-11.52,6.19-11.78,3.24-.23,6.25,3.57,7.48,8.96,0,0,.01,0,.01.02.25,1.11.43,2.3.52,3.53.06.83.03,1.65-.09,2.45Z"/>
  </g>
  <text class="cls-4" transform="translate(126.13 588.75)"><tspan x="0" y="0">Finde deinen Rhythmus</tspan></text>
</svg>