<svg width="244" height="301" viewBox="0 0 244 301" fill="none" xmlns="http://www.w3.org/2000/svg">
<path d="M127.81 200.62C129.82 228.88 109.37 253.78 81.0302 259.23C81.0302 259.24 81.0002 259.24 80.9902 259.24C81.1002 258.96 81.2102 258.67 81.3102 258.39C81.4102 258.15 81.4902 257.9 81.5602 257.66C81.7202 257.18 81.8602 256.7 81.9902 256.23C82.0302 256.1 82.0602 255.99 82.1002 255.86C82.1802 255.57 82.2502 255.27 82.3102 254.98C82.4102 254.56 82.5102 254.14 82.5702 253.73C82.5902 253.64 82.6202 253.53 82.6302 253.44C82.7302 252.91 82.8002 252.41 82.8702 251.91C82.9302 251.44 82.9802 250.97 83.0202 250.53L83.9302 249.35L83.9902 249.27V249.25C85.0502 247.56 85.9902 245.78 86.7902 243.89C91.5402 232.73 90.6302 220.88 85.3402 211.8C81.9102 205.89 76.6402 201.15 69.8702 198.55C55.0702 192.84 37.9602 199.15 28.5202 212.81C27.6202 214.37 26.8202 216.03 26.1202 217.76C25.9202 218.26 25.7202 218.77 25.5402 219.27C25.5402 219.27 25.2602 219.94 24.9502 220.8C24.8002 220.9 24.6502 221.04 24.4902 221.18C24.4802 221.18 24.4702 221.18 24.4602 221.2C8.86021 232.02 6.69023 254.09 17.2702 271.98C8.62023 262.05 2.00023 242.76 1.13023 230.59C0.350226 219.67 1.82022 209.09 5.14022 199.34C5.20022 199.17 5.25022 199.01 5.31022 198.85C12.3902 178.49 24.8202 166.43 36.6302 159.33C50.3102 151.1 63.1602 149.5 65.8802 149.3C97.9002 147.02 125.63 169.99 127.81 200.61V200.62Z" fill="#00BF58"/>
<path d="M239.66 68.46C228.31 74.91 219.28 82.35 202.89 56.49C190.77 37.37 187.1 19.63 173.45 8.75002C138.73 -18.97 136.13 32.97 136.24 46.16C136.69 98.93 142.18 135.11 143.03 175.81C144.41 242.19 121.95 284.95 65.0404 273.99C72.5304 275.43 78.3503 266.7 81.0303 259.23C81.0303 259.24 81.0003 259.24 80.9903 259.24C81.1003 258.96 81.2103 258.67 81.3103 258.39C81.4103 258.15 81.4903 257.9 81.5603 257.66C81.7203 257.18 81.8603 256.7 81.9903 256.23C82.1003 255.81 82.2103 255.4 82.3103 254.98C82.4003 254.56 82.4904 254.15 82.5704 253.73C86.8204 230.84 62.7104 210.88 39.6404 215.23C33.6504 216.24 28.5904 218.32 24.4804 221.19C24.4704 221.19 24.4604 221.19 24.4504 221.21C8.85036 232.03 6.68034 254.1 17.2603 271.99C17.2603 272 17.2604 272.01 17.2704 272.01C20.2204 277 24.1603 281.67 29.0903 285.69C65.0903 314.99 132.27 297.01 152 255.36C162.9 232.35 166.53 200.86 164.11 142.73C161.97 91.42 166.68 59.68 179.4 71.45C201.96 92.34 223.92 110.05 241.37 80.33C245.86 69.5 242.2 67.01 239.64 68.46H239.66ZM63.2803 260.04C63.0803 261.44 62.6603 262.8 62.1103 264.04C60.9003 266.79 59.1303 269.01 58.0903 270.17C57.5803 270.73 57.2403 271.05 57.2403 271.05C57.2403 271.05 54.0603 268.78 51.7103 265.23C50.4603 263.34 49.4503 261.08 49.2803 258.6C49.2403 258.01 49.2204 257.43 49.2304 256.87C49.2304 250.49 51.8303 245.4 55.4003 245.14C58.6203 244.91 61.6203 248.69 62.8403 254.07C62.8403 254.07 62.8504 254.07 62.8504 254.09C63.1004 255.2 63.2803 256.38 63.3703 257.6C63.4303 258.42 63.4003 259.24 63.2803 260.04Z" fill="#FA7926"/>
</svg>
