<?xml version="1.0" encoding="UTF-8" standalone="no"?>
<svg
   id="Farben_auf_Schriften"
   data-name="Farben auf Schriften"
   viewBox="0 0 744 361"
   version="1.1"
   sodipodi:docname="header_sprechen.svg"
   inkscape:version="1.4 (86a8ad7, 2024-10-11)"
   xmlns:inkscape="http://www.inkscape.org/namespaces/inkscape"
   xmlns:sodipodi="http://sodipodi.sourceforge.net/DTD/sodipodi-0.dtd"
   xmlns="http://www.w3.org/2000/svg"
   xmlns:svg="http://www.w3.org/2000/svg">
  <sodipodi:namedview
     id="namedview9"
     pagecolor="#ffffff"
     bordercolor="#000000"
     borderopacity="0.25"
     inkscape:showpageshadow="2"
     inkscape:pageopacity="0.0"
     inkscape:pagecheckerboard="0"
     inkscape:deskcolor="#d1d1d1"
     showgrid="false"
     inkscape:zoom="1.3847508"
     inkscape:cx="308.71982"
     inkscape:cy="155.62367"
     inkscape:window-width="1920"
     inkscape:window-height="1009"
     inkscape:window-x="-8"
     inkscape:window-y="-8"
     inkscape:window-maximized="1"
     inkscape:current-layer="Farben_auf_Schriften" />
  <defs
     id="defs1">
    <style
       id="style1">
      .cls-1 {
        font-family: DeliusSwashCaps-Regular, 'Delius Swash Caps';
        font-size: 101.54px;
      }

      .cls-1, .cls-2, .cls-3 {
        fill: #fa7926;
      }

      .cls-4 {
        letter-spacing: 0em;
      }

      .cls-5 {
        fill: #b01929;
      }

      .cls-5, .cls-2 {
        stroke-width: 0px;
      }

      .cls-3 {
        font-family: Kolage-Light, Kolage;
        font-size: 42.31px;
        font-variation-settings: 'wght' 300;
        font-weight: 300;
      }

      .cls-6 {
        letter-spacing: -.04em;
      }

      .cls-7 {
        letter-spacing: -.01em;
      }

      .cls-8 {
        letter-spacing: -.04em;
      }

      .cls-9 {
        letter-spacing: -.01em;
      }
    </style>
  </defs>
  <text
     class="cls-1"
     id="text6"
     x="227.81094"
     y="225.01149"
     style="stroke-width:1.00001"><tspan
       class="cls-4"
       x="227.81094"
       y="225.01149"
       id="tspan1"
       style="font-style:normal;font-variant:normal;font-weight:normal;font-stretch:normal;font-family:'Delius Swash Caps';-inkscape-font-specification:'Delius Swash Caps';stroke-width:1.00001">AtemWelt</tspan></text>
  <path
     class="cls-2"
     d="m 153.92132,213.45045 c 1.72002,24.18 -15.78014,45.48 -40.02037,50.14 0,0 -0.03,0.01 -0.03,0.01 0.10001,-0.24 0.18,-0.49 0.27,-0.73 0.08,-0.21 0.15,-0.42 0.22,-0.63 0.14,-0.41 0.26,-0.82 0.37001,-1.22 0.04,-0.11 0.06,-0.21 0.09,-0.31 0.07,-0.25 0.13,-0.51 0.18,-0.76 0.09,-0.36 0.17,-0.72 0.22,-1.07 0.02,-0.08 0.04,-0.17 0.05,-0.25 0.08,-0.45 0.15001,-0.89 0.20001,-1.31 0.05,-0.41 0.09,-0.8 0.13,-1.18 l 0.78,-1.01 0.05,-0.06 v -0.02 c 0.91002,-1.45 1.71002,-2.97 2.39003,-4.59 4.06003,-9.55 3.29003,-19.69 -1.24002,-27.46 -2.93002,-5.06 -7.44006,-9.11 -13.24012,-11.34 -12.650118,-4.88 -27.260251,0.5 -35.350326,12.16 -0.03,0.04 -0.05,0.06 -0.06,0.1 -0.750006,1.32 -1.430012,2.72 -2.020018,4.18 -0.170002,0.43 -0.340003,0.86 -0.490004,1.29 0,0 -0.240003,0.58 -0.500005,1.31 -0.120002,0.09 -0.260003,0.2 -0.400004,0.33 0,0 -0.02,0 -0.02,0.02 -13.340123,9.26 -15.200139,28.14 -6.150056,43.45 -7.400069,-8.5 -13.06012,-25 -13.800127,-35.41 -0.670006,-9.35 0.590005,-18.39 3.430031,-26.74 0.05,-0.14 0.09,-0.29 0.140001,-0.42 6.050056,-17.42 16.690153,-27.74 26.800247,-33.81 11.700107,-7.04 22.690209,-8.41 25.030231,-8.58 27.40025,-1.95 51.12047,17.7 52.98049,43.9 z"
     id="path6" />
  <path
     class="cls-5"
     d="m 249.60219,100.38045 c -9.71008,5.52 -17.44016,11.88 -31.46028,-10.239997 -10.37009,-16.36 -13.51013,-31.53 -25.18023,-40.85 -29.70028,-23.71 -31.9303,20.72 -31.8303,32.01 0.38001,45.149997 5.08005,76.099997 5.81006,110.919997 1.18,56.79 -18.04017,93.37 -66.72062,84 6.41007,1.23 11.39011,-6.23 13.68013,-12.63 0,0 -0.03,0.01 -0.03,0.01 0.10001,-0.24 0.18,-0.49 0.27,-0.73 0.08,-0.21 0.15,-0.42 0.22,-0.63 0.14,-0.41 0.26,-0.82 0.37001,-1.22 0.1,-0.36 0.19,-0.71 0.27,-1.07 0.08,-0.36 0.15,-0.71 0.22,-1.07 3.64004,-19.58 -16.990157,-36.66 -36.730339,-32.94 -5.130047,0.86 -9.450086,2.64 -12.970119,5.1 0,0 -0.02,0 -0.02,0.02 -13.340123,9.26 -15.200139,28.14 -6.150056,43.45 0,0 0,0.02 0,0.02 2.530023,4.27 5.900054,8.27 10.110092,11.7 30.800282,25.07 88.280812,9.68 105.160972,-25.95 9.32008,-19.69 12.43011,-46.62 10.3601,-96.36 -1.83002,-43.9 2.20001,-71.049997 13.08011,-60.98 18.49017,17.12 36.51034,31.75 51.12048,10.59 1.53001,-2.22 2.72002,-4.68 3.34003,-7.3 1.32001,-5.62 -1.11002,-6.869997 -2.92004,-5.85 z m -150.901383,163.9 c -0.170002,1.2 -0.530005,2.36 -1.000009,3.42 -1.040009,2.36 -2.550023,4.25 -3.440031,5.25 -0.440005,0.48 -0.720007,0.75 -0.720007,0.75 0,0 -2.720026,-1.94 -4.730044,-4.98 -1.07001,-1.62 -1.930018,-3.55 -2.080019,-5.67 -0.04,-0.5 -0.05,-1 -0.04,-1.48 0,-5.46 2.22002,-9.81 5.280048,-10.03 2.760026,-0.2 5.320049,3.04 6.370059,7.64 0,0 0,0 0,0.02 0.220002,0.95 0.370003,1.96 0.440004,3 0.05,0.7 0.02,1.41 -0.08,2.09 z"
     id="path7" />
  <text
     class="cls-3"
     id="text9"
     x="232.50095"
     y="279.05173"
     style="stroke-width:1.00001"><tspan
       x="232.50095"
       y="279.05173"
       id="tspan7"
       style="font-style:normal;font-variant:normal;font-weight:normal;font-stretch:normal;font-family:Kolage;-inkscape-font-specification:Kolage;stroke-width:1.00001">Sprechen</tspan></text>
</svg>
