<?xml version="1.0" encoding="UTF-8" standalone="no"?>
<svg
   id="Farben_auf_Schriften"
   data-name="Farben auf Schriften"
   viewBox="0 0 744 361"
   version="1.1"
   sodipodi:docname="header_atmen_1.svg"
   inkscape:version="1.4 (86a8ad7, 2024-10-11)"
   xmlns:inkscape="http://www.inkscape.org/namespaces/inkscape"
   xmlns:sodipodi="http://sodipodi.sourceforge.net/DTD/sodipodi-0.dtd"
   xmlns="http://www.w3.org/2000/svg"
   xmlns:svg="http://www.w3.org/2000/svg">
  <sodipodi:namedview
     id="namedview7"
     pagecolor="#ffffff"
     bordercolor="#000000"
     borderopacity="0.25"
     inkscape:showpageshadow="2"
     inkscape:pageopacity="0.0"
     inkscape:pagecheckerboard="0"
     inkscape:deskcolor="#d1d1d1"
     showgrid="false"
     inkscape:zoom="1.8830645"
     inkscape:cx="372"
     inkscape:cy="180.29122"
     inkscape:window-width="1920"
     inkscape:window-height="1009"
     inkscape:window-x="1912"
     inkscape:window-y="-8"
     inkscape:window-maximized="1"
     inkscape:current-layer="Farben_auf_Schriften" />
  <defs
     id="defs1">
    <style
       id="style1">
      .cls-1 {
        letter-spacing: 0em;
      }

      .cls-2, .cls-3 {
        stroke-width: 0px;
      }

      .cls-2, .cls-4, .cls-5 {
        fill: #00bf58;
      }

      .cls-3 {
        fill: #fa7926;
      }

      .cls-6 {
        letter-spacing: -.04em;
      }

      .cls-4 {
        font-family: DeliusSwashCaps-Regular, 'Delius Swash Caps';
        font-size: 101.54px;
      }

      .cls-7 {
        letter-spacing: -.04em;
      }

      .cls-5 {
        font-family: Kolage-Light, Kolage;
        font-size: 42.31px;
        font-variation-settings: 'wght' 300;
        font-weight: 300;
      }

      .cls-8 {
        letter-spacing: -.01em;
      }
    </style>
  </defs>
  <text
     class="cls-4"
     id="text6"
     x="228.02199"
     y="225.01318"
     style="stroke-width:1.00001"><tspan
       class="cls-1"
       x="228.02199"
       y="225.01318"
       id="tspan1"
       style="stroke-width:1.00001">A</tspan><tspan
       class="cls-8"
       x="310.06299"
       y="225.01318"
       id="tspan2"
       style="stroke-width:1.00001">t</tspan><tspan
       x="343.16336"
       y="225.01318"
       id="tspan3"
       style="stroke-width:1.00001">e</tspan><tspan
       class="cls-6"
       x="397.89404"
       y="225.01318"
       id="tspan4"
       style="stroke-width:1.00001">m</tspan><tspan
       class="cls-7"
       x="483.29507"
       y="225.01318"
       id="tspan5"
       style="stroke-width:1.00001">W</tspan><tspan
       x="587.16638"
       y="225.01318"
       id="tspan6"
       style="stroke-width:1.00001">elt</tspan></text>
  <path
     class="cls-2"
     d="m 154.13295,213.45045 c 1.72005,24.18 -15.78038,45.48 -40.02097,50.14 0,0 -0.03,0.01 -0.03,0.01 0.10001,-0.24 0.18001,-0.49 0.27001,-0.73 0.08,-0.21 0.15,-0.42 0.22,-0.63 0.14,-0.41 0.26,-0.82 0.37002,-1.22 0.04,-0.11 0.06,-0.21 0.09,-0.31 0.07,-0.25 0.13,-0.51 0.18,-0.76 0.09,-0.36 0.17,-0.72 0.22,-1.07 0.02,-0.08 0.04,-0.17 0.05,-0.25 0.08,-0.45 0.15001,-0.89 0.20001,-1.31 0.05,-0.41 0.09,-0.8 0.13,-1.18 l 0.78002,-1.01 0.05,-0.06 v -0.02 c 0.91003,-1.45 1.71005,-2.97 2.39006,-4.59 4.0601,-9.55 3.29008,-19.69 -1.24003,-27.46 -2.93007,-5.06 -7.44018,-9.11 -13.24032,-11.34 -12.650309,-4.88 -27.260663,0.5 -35.350859,12.16 -0.03,0.04 -0.05,0.06 -0.06,0.1 -0.750018,1.32 -1.430034,2.72 -2.020049,4.18 -0.170004,0.43 -0.340008,0.86 -0.490011,1.29 0,0 -0.240006,0.58 -0.500013,1.31 -0.120003,0.09 -0.260006,0.2 -0.40001,0.33 0,0 -0.02,0 -0.02,0.02 -13.340324,9.26 -15.200368,28.14 -6.150149,43.45 -7.40018,-8.5 -13.060316,-25 -13.800334,-35.41 -0.670017,-9.35 0.590013,-18.39 3.430083,-26.74 0.05,-0.14 0.09,-0.29 0.140003,-0.42 6.050146,-17.42 16.690404,-27.74 26.80065,-33.81 11.700283,-7.04 22.69055,-8.41 25.030609,-8.58 27.40066,-1.95 51.12123,17.7 52.98128,43.9 z"
     id="path6" />
  <path
     class="cls-3"
     d="m 249.81527,100.38045 c -9.71023,5.52 -17.44042,11.88 -31.46076,-10.239997 -10.37025,-16.36 -13.51033,-31.53 -25.18061,-40.85 -29.70072,-23.71 -31.93077,20.72 -31.83077,32.01 0.38001,45.149997 5.08012,76.099997 5.81014,110.919997 1.18002,56.79 -18.04044,93.37 -66.72162,84 6.41016,1.23 11.39028,-6.23 13.68033,-12.63 0,0 -0.03,0.01 -0.03,0.01 0.10001,-0.24 0.18001,-0.49 0.27001,-0.73 0.08,-0.21 0.15,-0.42 0.22,-0.63 0.14,-0.41 0.26,-0.82 0.37002,-1.22 0.1,-0.36 0.19,-0.71 0.27,-1.07 0.08,-0.36 0.15,-0.71 0.22,-1.07 3.64009,-19.58 -16.99041,-36.66 -36.730889,-32.94 -5.130125,0.86 -9.450229,2.64 -12.970315,5.1 0,0 -0.02,0 -0.02,0.02 -13.340324,9.26 -15.200368,28.14 -6.150149,43.45 0,0 0,0.02 0,0.02 2.530062,4.27 5.900143,8.27 10.110245,11.7 30.800748,25.07 88.282148,9.68 105.162548,-25.95 9.32023,-19.69 12.43031,-46.62 10.36026,-96.36 -1.83005,-43.9 2.20005,-71.049997 13.08031,-60.98 18.49045,17.12 36.51089,31.75 51.12125,10.59 1.53003,-2.22 2.72006,-4.68 3.34008,-7.3 1.32003,-5.62 -1.11003,-6.869997 -2.92008,-5.85 z m -150.903659,163.9 c -0.170005,1.2 -0.530013,2.36 -1.000024,3.42 -1.040025,2.36 -2.550062,4.25 -3.440083,5.25 -0.440011,0.48 -0.720018,0.75 -0.720018,0.75 0,0 -2.720066,-1.94 -4.730115,-4.98 -1.070026,-1.62 -1.930047,-3.55 -2.08005,-5.67 -0.04,-0.5 -0.05,-1 -0.04,-1.48 0,-5.46 2.220054,-9.81 5.280127,-10.03 2.760068,-0.2 5.32013,3.04 6.370156,7.64 0,0 0,0 0,0.02 0.220005,0.95 0.370008,1.96 0.44001,3 0.05,0.7 0.02,1.41 -0.08,2.09 z"
     id="path7" />
  <text
     class="cls-5"
     id="text7"
     x="232.71202"
     y="279.05383"
     style="stroke-width:1.00001"><tspan
       x="232.71202"
       y="279.05383"
       id="tspan7"
       style="stroke-width:1.00001">Atmen</tspan></text>
</svg>
