<?xml version="1.0" encoding="UTF-8"?>
<svg id="Farben_auf_Schriften" data-name="Farben auf Schriften" xmlns="http://www.w3.org/2000/svg" viewBox="0 0 744 361">
  <defs>
    <style>
      .cls-1 {
        letter-spacing: 0em;
      }

      .cls-2, .cls-3 {
        stroke-width: 0px;
      }

      .cls-2, .cls-4, .cls-5 {
        fill: #00bf58;
      }

      .cls-3 {
        fill: #fa7926;
      }

      .cls-6 {
        letter-spacing: -.04em;
      }

      .cls-4 {
        font-family: DeliusSwashCaps-Regular, 'Delius Swash Caps';
        font-size: 101.54px;
      }

      .cls-7 {
        letter-spacing: -.04em;
      }

      .cls-5 {
        font-family: Kolage-Light, Kolage;
        font-size: 42.31px;
        font-variation-settings: 'wght' 300;
        font-weight: 300;
      }

      .cls-8 {
        letter-spacing: -.01em;
      }
    </style>
  </defs>
  <text class="cls-4" transform="translate(238.91 230.61)"><tspan class="cls-1" x="0" y="0">A</tspan><tspan class="cls-8" x="82.04" y="0">t</tspan><tspan x="115.14" y="0">e</tspan><tspan class="cls-6" x="169.87" y="0">m</tspan><tspan class="cls-7" x="255.27" y="0">W</tspan><tspan x="359.14" y="0">elt</tspan></text>
  <path class="cls-2" d="m165.02,219.05c1.72,24.18-15.78,45.48-40.02,50.14,0,0-.03.01-.03.01.1-.24.18-.49.27-.73.08-.21.15-.42.22-.63.14-.41.26-.82.37-1.22.04-.11.06-.21.09-.31.07-.25.13-.51.18-.76.09-.36.17-.72.22-1.07.02-.08.04-.17.05-.25.08-.45.15-.89.2-1.31.05-.41.09-.8.13-1.18l.78-1.01.05-.06v-.02c.91-1.45,1.71-2.97,2.39-4.59,4.06-9.55,3.29-19.69-1.24-27.46-2.93-5.06-7.44-9.11-13.24-11.34-12.65-4.88-27.26.5-35.35,12.16-.03.04-.05.06-.06.1-.75,1.32-1.43,2.72-2.02,4.18-.17.43-.34.86-.49,1.29,0,0-.24.58-.5,1.31-.12.09-.26.2-.4.33,0,0-.02,0-.02.02-13.34,9.26-15.2,28.14-6.15,43.45-7.4-8.5-13.06-25-13.8-35.41-.67-9.35.59-18.39,3.43-26.74.05-.14.09-.29.14-.42,6.05-17.42,16.69-27.74,26.8-33.81,11.7-7.04,22.69-8.41,25.03-8.58,27.4-1.95,51.12,17.7,52.98,43.9Z"/>
  <path class="cls-3" d="m260.7,105.98c-9.71,5.52-17.44,11.88-31.46-10.24-10.37-16.36-13.51-31.53-25.18-40.85-29.7-23.71-31.93,20.72-31.83,32.01.38,45.15,5.08,76.1,5.81,110.92,1.18,56.79-18.04,93.37-66.72,84,6.41,1.23,11.39-6.23,13.68-12.63,0,0-.03.01-.03.01.1-.24.18-.49.27-.73.08-.21.15-.42.22-.63.14-.41.26-.82.37-1.22.1-.36.19-.71.27-1.07.08-.36.15-.71.22-1.07,3.64-19.58-16.99-36.66-36.73-32.94-5.13.86-9.45,2.64-12.97,5.1,0,0-.02,0-.02.02-13.34,9.26-15.2,28.14-6.15,43.45,0,0,0,.02,0,.02,2.53,4.27,5.9,8.27,10.11,11.7,30.8,25.07,88.28,9.68,105.16-25.95,9.32-19.69,12.43-46.62,10.36-96.36-1.83-43.9,2.2-71.05,13.08-60.98,18.49,17.12,36.51,31.75,51.12,10.59,1.53-2.22,2.72-4.68,3.34-7.3,1.32-5.62-1.11-6.87-2.92-5.85Zm-150.9,163.9c-.17,1.2-.53,2.36-1,3.42-1.04,2.36-2.55,4.25-3.44,5.25-.44.48-.72.75-.72.75,0,0-2.72-1.94-4.73-4.98-1.07-1.62-1.93-3.55-2.08-5.67-.04-.5-.05-1-.04-1.48,0-5.46,2.22-9.81,5.28-10.03,2.76-.2,5.32,3.04,6.37,7.64,0,0,0,0,0,.02.22.95.37,1.96.44,3,.05.7.02,1.41-.08,2.09Z"/>
  <text class="cls-5" transform="translate(243.6 284.65)"><tspan x="0" y="0">Atmen</tspan></text>
</svg>