<?xml version="1.0" encoding="UTF-8" standalone="no"?>
<svg
   id="Farben_auf_Schriften"
   data-name="Farben auf Schriften"
   viewBox="0 0 744 361"
   version="1.1"
   sodipodi:docname="header_sprechen_1.svg"
   inkscape:version="1.4 (86a8ad7, 2024-10-11)"
   xmlns:inkscape="http://www.inkscape.org/namespaces/inkscape"
   xmlns:sodipodi="http://sodipodi.sourceforge.net/DTD/sodipodi-0.dtd"
   xmlns="http://www.w3.org/2000/svg"
   xmlns:svg="http://www.w3.org/2000/svg">
  <sodipodi:namedview
     id="namedview9"
     pagecolor="#ffffff"
     bordercolor="#000000"
     borderopacity="0.25"
     inkscape:showpageshadow="2"
     inkscape:pageopacity="0.0"
     inkscape:pagecheckerboard="0"
     inkscape:deskcolor="#d1d1d1"
     showgrid="false"
     inkscape:zoom="1.9583333"
     inkscape:cx="372"
     inkscape:cy="180.51064"
     inkscape:window-width="1920"
     inkscape:window-height="1009"
     inkscape:window-x="1912"
     inkscape:window-y="-8"
     inkscape:window-maximized="1"
     inkscape:current-layer="Farben_auf_Schriften" />
  <defs
     id="defs1">
    <style
       id="style1">
      .cls-1 {
        font-family: DeliusSwashCaps-Regular, 'Delius Swash Caps';
        font-size: 101.54px;
      }

      .cls-1, .cls-2, .cls-3 {
        fill: #fa7926;
      }

      .cls-4 {
        letter-spacing: 0em;
      }

      .cls-5 {
        fill: #b01929;
      }

      .cls-5, .cls-2 {
        stroke-width: 0px;
      }

      .cls-3 {
        font-family: Kolage-Light, Kolage;
        font-size: 42.31px;
        font-variation-settings: 'wght' 300;
        font-weight: 300;
      }

      .cls-6 {
        letter-spacing: -.04em;
      }

      .cls-7 {
        letter-spacing: -.01em;
      }

      .cls-8 {
        letter-spacing: -.04em;
      }

      .cls-9 {
        letter-spacing: -.01em;
      }
    </style>
  </defs>
  <text
     class="cls-1"
     id="text6"
     x="228.02135"
     y="225.01213"
     style="stroke-width:1.00001"><tspan
       class="cls-4"
       x="228.02135"
       y="225.01213"
       id="tspan1"
       style="stroke-width:1.00001">A</tspan><tspan
       class="cls-9"
       x="310.06198"
       y="225.01213"
       id="tspan2"
       style="stroke-width:1.00001">t</tspan><tspan
       x="343.1622"
       y="225.01213"
       id="tspan3"
       style="stroke-width:1.00001">e</tspan><tspan
       class="cls-8"
       x="397.89261"
       y="225.01213"
       id="tspan4"
       style="stroke-width:1.00001">m</tspan><tspan
       class="cls-6"
       x="483.29324"
       y="225.01213"
       id="tspan5"
       style="stroke-width:1.00001">W</tspan><tspan
       x="587.16406"
       y="225.01213"
       id="tspan6"
       style="stroke-width:1.00001">elt</tspan></text>
  <path
     class="cls-2"
     d="m 154.13194,213.45045 c 1.72003,24.18 -15.78023,45.48 -40.0206,50.14 0,0 -0.03,0.01 -0.03,0.01 0.10001,-0.24 0.18001,-0.49 0.27001,-0.73 0.08,-0.21 0.15,-0.42 0.22,-0.63 0.14,-0.41 0.26,-0.82 0.37001,-1.22 0.04,-0.11 0.06,-0.21 0.09,-0.31 0.07,-0.25 0.13,-0.51 0.18,-0.76 0.09,-0.36 0.17,-0.72 0.22,-1.07 0.02,-0.08 0.04,-0.17 0.05,-0.25 0.08,-0.45 0.15001,-0.89 0.20001,-1.31 0.05,-0.41 0.09,-0.8 0.13,-1.18 l 0.78001,-1.01 0.05,-0.06 v -0.02 c 0.91002,-1.45 1.71003,-2.97 2.39004,-4.59 4.06006,-9.55 3.29005,-19.69 -1.24002,-27.46 -2.93004,-5.06 -7.44011,-9.11 -13.2402,-11.34 -12.65019,-4.88 -27.260408,0.5 -35.350529,12.16 -0.03,0.04 -0.05,0.06 -0.06,0.1 -0.750011,1.32 -1.430021,2.72 -2.02003,4.18 -0.170003,0.43 -0.340005,0.86 -0.490007,1.29 0,0 -0.240004,0.58 -0.500008,1.31 -0.120002,0.09 -0.260004,0.2 -0.400006,0.33 0,0 -0.02,0 -0.02,0.02 -13.3402,9.26 -15.200227,28.14 -6.150092,43.45 -7.400111,-8.5 -13.060195,-25 -13.800206,-35.41 -0.67001,-9.35 0.590008,-18.39 3.430051,-26.74 0.05,-0.14 0.09,-0.29 0.140002,-0.42 6.05009,-17.42 16.690249,-27.74 26.800401,-33.81 11.700174,-7.04 22.690339,-8.41 25.030374,-8.58 27.40041,-1.95 51.12076,17.7 52.98079,43.9 z"
     id="path6" />
  <path
     class="cls-5"
     d="m 249.81337,100.38045 c -9.71014,5.52 -17.44026,11.88 -31.46047,-10.239997 -10.37015,-16.36 -13.5102,-31.53 -25.18037,-40.85 -29.70045,-23.71 -31.93048,20.72 -31.83048,32.01 0.38001,45.149997 5.08008,76.099997 5.81009,110.919997 1.18001,56.79 -18.04027,93.37 -66.721,84 6.4101,1.23 11.39017,-6.23 13.6802,-12.63 0,0 -0.03,0.01 -0.03,0.01 0.10001,-0.24 0.18001,-0.49 0.27001,-0.73 0.08,-0.21 0.15,-0.42 0.22,-0.63 0.14,-0.41 0.26,-0.82 0.37001,-1.22 0.1,-0.36 0.19,-0.71 0.27,-1.07 0.08,-0.36 0.15,-0.71 0.22,-1.07 3.64006,-19.58 -16.990252,-36.66 -36.730547,-32.94 -5.130077,0.86 -9.450141,2.64 -12.970194,5.1 0,0 -0.02,0 -0.02,0.02 -13.3402,9.26 -15.200227,28.14 -6.150092,43.45 0,0 0,0.02 0,0.02 2.530038,4.27 5.900088,8.27 10.110151,11.7 30.800462,25.07 88.281322,9.68 105.161572,-25.95 9.32014,-19.69 12.43019,-46.62 10.36016,-96.36 -1.83003,-43.9 2.20003,-71.049997 13.08019,-60.98 18.49028,17.12 36.51055,31.75 51.12077,10.59 1.53002,-2.22 2.72004,-4.68 3.34005,-7.3 1.32002,-5.62 -1.11002,-6.869997 -2.92005,-5.85 z m -150.902255,163.9 c -0.170003,1.2 -0.530008,2.36 -1.000015,3.42 -1.040015,2.36 -2.550038,4.25 -3.440051,5.25 -0.440007,0.48 -0.720011,0.75 -0.720011,0.75 0,0 -2.720041,-1.94 -4.730071,-4.98 -1.070016,-1.62 -1.930029,-3.55 -2.080031,-5.67 -0.04,-0.5 -0.05,-1 -0.04,-1.48 0,-5.46 2.220033,-9.81 5.280078,-10.03 2.760042,-0.2 5.32008,3.04 6.370096,7.64 0,0 0,0 0,0.02 0.220003,0.95 0.370005,1.96 0.440006,3 0.05,0.7 0.02,1.41 -0.08,2.09 z"
     id="path7" />
  <text
     class="cls-3"
     id="text9"
     x="232.71136"
     y="279.05252"
     style="stroke-width:1.00001"><tspan
       x="232.71136"
       y="279.05252"
       id="tspan7"
       style="stroke-width:1.00001">Sp</tspan><tspan
       class="cls-7"
       x="275.95169"
       y="279.05252"
       id="tspan8"
       style="stroke-width:1.00001">r</tspan><tspan
       x="288.01178"
       y="279.05252"
       id="tspan9"
       style="stroke-width:1.00001">echen</tspan></text>
</svg>
