<?xml version="1.0" encoding="UTF-8" standalone="no"?>
<svg
   id="Logo"
   viewBox="0 0 744 361"
   version="1.1"
   sodipodi:docname="home_header_1.svg"
   inkscape:version="1.4 (86a8ad7, 2024-10-11)"
   xmlns:inkscape="http://www.inkscape.org/namespaces/inkscape"
   xmlns:sodipodi="http://sodipodi.sourceforge.net/DTD/sodipodi-0.dtd"
   xmlns="http://www.w3.org/2000/svg"
   xmlns:svg="http://www.w3.org/2000/svg">
  <sodipodi:namedview
     id="namedview7"
     pagecolor="#ffffff"
     bordercolor="#000000"
     borderopacity="0.25"
     inkscape:showpageshadow="2"
     inkscape:pageopacity="0.0"
     inkscape:pagecheckerboard="0"
     inkscape:deskcolor="#d1d1d1"
     showgrid="false"
     inkscape:zoom="1.8830645"
     inkscape:cx="372"
     inkscape:cy="180.29122"
     inkscape:window-width="1920"
     inkscape:window-height="1009"
     inkscape:window-x="1912"
     inkscape:window-y="-8"
     inkscape:window-maximized="1"
     inkscape:current-layer="Logo" />
  <defs
     id="defs1">
    <style
       id="style1">
      .cls-1 {
        letter-spacing: -.04em;
      }

      .cls-2 {
        font-family: Kolage-Light, Kolage;
        font-size: 42.43px;
        font-variation-settings: 'wght' 300;
        font-weight: 300;
      }

      .cls-2, .cls-3 {
        fill: #b01929;
      }

      .cls-4 {
        fill: #fa7926;
        stroke-width: 0px;
      }

      .cls-5 {
        letter-spacing: -.04em;
      }

      .cls-3 {
        font-family: DeliusSwashCaps-Regular, 'Delius Swash Caps';
        font-size: 101.83px;
      }

      .cls-6 {
        letter-spacing: 0em;
      }

      .cls-7 {
        letter-spacing: -.01em;
      }
    </style>
  </defs>
  <text
     class="cls-3"
     id="text6"
     x="228.03687"
     y="224.99768"
     style="stroke-width:0.997142"><tspan
       class="cls-6"
       x="228.03687"
       y="224.99768"
       id="tspan1"
       style="stroke-width:0.997142">A</tspan><tspan
       class="cls-7"
       x="310.08167"
       y="224.99768"
       id="tspan2"
       style="stroke-width:0.997142">t</tspan><tspan
       x="343.17679"
       y="224.99768"
       id="tspan3"
       style="stroke-width:0.997142">e</tspan><tspan
       class="cls-1"
       x="397.90982"
       y="224.99768"
       id="tspan4"
       style="stroke-width:0.997142">m</tspan><tspan
       class="cls-5"
       x="483.29504"
       y="224.99768"
       id="tspan5"
       style="stroke-width:0.997142">W</tspan><tspan
       x="587.16724"
       y="224.99768"
       id="tspan6"
       style="stroke-width:0.997142">elt</tspan></text>
  <path
     class="cls-4"
     d="m 154.13968,213.43952 c 1.72507,24.17056 -15.77487,45.47933 -40.02549,50.14592 0,0 -0.0299,0.01 -0.0299,0.01 0.0997,-0.23932 0.17949,-0.4886 0.26923,-0.72791 0.0798,-0.2094 0.14957,-0.4188 0.21937,-0.6282 0.1396,-0.40882 0.25926,-0.82762 0.36895,-1.22647 0.0399,-0.10969 0.0598,-0.2094 0.0897,-0.30912 0.0698,-0.24928 0.12963,-0.50854 0.17949,-0.75782 0.0897,-0.35897 0.16951,-0.71794 0.21937,-1.06693 0.0199,-0.0798 0.0399,-0.16952 0.0499,-0.24929 0.0798,-0.44871 0.14957,-0.88745 0.19943,-1.30624 0.0498,-0.40883 0.0897,-0.79771 0.12962,-1.17662 l 0.77778,-1.00711 0.0499,-0.0598 v -0.0199 c 0.9074,-1.44585 1.71509,-2.97146 2.39315,-4.58682 4.05839,-9.55256 3.29059,-19.68345 -1.23646,-27.45113 -2.93162,-5.05548 -7.44869,-9.10384 -13.23215,-11.33743 -12.643818,-4.88596 -27.261996,0.49857 -35.348859,12.15508 -0.02991,0.0399 -0.04986,0.0598 -0.05983,0.0997 -0.757832,1.32619 -1.435892,2.72218 -2.024208,4.178 -0.169515,0.42877 -0.33903,0.86751 -0.498574,1.29628 0,0 -0.239315,0.57833 -0.498574,1.31621 -0.129629,0.0898 -0.259258,0.19943 -0.398858,0.32906 0,0 -0.01994,0 -0.01994,0.0199 -13.341829,9.26339 -15.196523,28.13915 -6.152398,43.44518 -7.398832,-8.4956 -13.062628,-24.99818 -13.800517,-35.40827 -0.668088,-9.34316 0.588317,-18.39714 3.430186,-26.73319 0.04986,-0.1396 0.08974,-0.28917 0.149572,-0.4188 6.052684,-17.41995 16.692244,-27.73032 26.793344,-33.80288 11.696536,-7.03977 22.695069,-8.41582 25.028386,-8.57536 27.39163,-1.95438 51.11377,17.69915 52.97843,43.89389 z"
     id="path6" />
  <path
     class="cls-4"
     d="m 249.82592,100.37438 c -9.71221,5.51415 -17.4401,11.87588 -31.45999,-10.240577 -10.37033,-16.362986 -13.51135,-31.52941 -25.18794,-40.842652 -29.70501,-23.711872 -31.92865,20.720467 -31.82894,32.008036 0.37892,45.150273 5.07548,76.101343 5.8034,110.921303 1.18661,56.78684 -18.03839,93.37172 -66.71911,83.99866 6.41165,1.23644 11.38742,-6.2321 13.68085,-12.62373 0,0 -0.0299,0.01 -0.0299,0.01 0.0997,-0.23932 0.17949,-0.4886 0.26923,-0.72791 0.0798,-0.2094 0.14957,-0.4188 0.21937,-0.6282 0.1396,-0.40882 0.25926,-0.82762 0.36895,-1.22647 0.0997,-0.35897 0.18945,-0.71794 0.26923,-1.06694 0.0798,-0.35897 0.14957,-0.70796 0.21937,-1.06693 3.63959,-19.58373 -16.991386,-36.66466 -36.724928,-32.93537 -5.125336,0.8675 -9.452955,2.6424 -12.962913,5.09536 0,0 -0.01994,0 -0.01994,0.0199 -13.341829,9.26338 -15.196522,28.13915 -6.152398,43.44517 0,0 0,0.0199 0,0.0199 2.522782,4.26773 5.89314,8.26625 10.111072,11.69639 30.801867,25.06798 88.277427,9.68218 105.159137,-25.94545 9.32332,-19.68345 12.43442,-46.62604 10.36035,-96.35316 -1.82477,-43.89389 2.2037,-71.055845 13.08258,-60.98478 18.4871,17.1208 36.50555,31.74878 51.11376,10.58957 1.5356,-2.21364 2.72221,-4.67656 3.34044,-7.29903 1.31624,-5.61387 -1.1168,-6.870256 -2.91167,-5.85318 z M 98.927646,264.27347 c -0.169515,1.19656 -0.528488,2.36321 -0.997147,3.42017 -1.037033,2.35324 -2.552697,4.2478 -3.440158,5.24493 -0.438744,0.47863 -0.727917,0.74785 -0.727917,0.74785 0,0 -2.722212,-1.94441 -4.726478,-4.98567 -1.066947,-1.62533 -1.934465,-3.5498 -2.084037,-5.66373 -0.03989,-0.50854 -0.04986,-0.99714 -0.03989,-1.48573 0,-5.45433 2.223638,-9.81181 5.274908,-10.03118 2.762098,-0.19943 5.324766,3.04126 6.371771,7.63805 0,0 0,0 0,0.0199 0.219372,0.94728 0.368944,1.95438 0.438744,3.00137 0.04986,0.70797 0.01994,1.40596 -0.07977,2.08402 z"
     id="path7" />
  <text
     class="cls-2"
     id="text7"
     x="232.72345"
     y="279.03278"
     style="stroke-width:0.997142"><tspan
       x="232.72345"
       y="279.03278"
       id="tspan7"
       style="stroke-width:0.997142">Finde deinen Rhythmus</tspan></text>
</svg>
