<?xml version="1.0" encoding="UTF-8"?>
<svg id="Logo" xmlns="http://www.w3.org/2000/svg" viewBox="0 0 744 361">
  <defs>
    <style>
      .cls-1 {
        letter-spacing: -.04em;
      }

      .cls-2 {
        font-family: Kolage-Light, Kolage;
        font-size: 42.43px;
        font-variation-settings: 'wght' 300;
        font-weight: 300;
      }

      .cls-2, .cls-3 {
        fill: #b01929;
      }

      .cls-4 {
        fill: #fa7926;
        stroke-width: 0px;
      }

      .cls-5 {
        letter-spacing: -.04em;
      }

      .cls-3 {
        font-family: DeliusSwashCaps-Regular, 'Delius Swash Caps';
        font-size: 101.83px;
      }

      .cls-6 {
        letter-spacing: 0em;
      }

      .cls-7 {
        letter-spacing: -.01em;
      }
    </style>
  </defs>
  <text class="cls-3" transform="translate(226.48 224.29)"><tspan class="cls-6" x="0" y="0">A</tspan><tspan class="cls-7" x="82.28" y="0">t</tspan><tspan x="115.47" y="0">e</tspan><tspan class="cls-1" x="170.36" y="0">m</tspan><tspan class="cls-5" x="255.99" y="0">W</tspan><tspan x="360.16" y="0">elt</tspan></text>
  <path class="cls-4" d="m152.37,212.7c1.73,24.24-15.82,45.61-40.14,50.29,0,0-.03.01-.03.01.1-.24.18-.49.27-.73.08-.21.15-.42.22-.63.14-.41.26-.83.37-1.23.04-.11.06-.21.09-.31.07-.25.13-.51.18-.76.09-.36.17-.72.22-1.07.02-.08.04-.17.05-.25.08-.45.15-.89.2-1.31.05-.41.09-.8.13-1.18l.78-1.01.05-.06v-.02c.91-1.45,1.72-2.98,2.4-4.6,4.07-9.58,3.3-19.74-1.24-27.53-2.94-5.07-7.47-9.13-13.27-11.37-12.68-4.9-27.34.5-35.45,12.19-.03.04-.05.06-.06.1-.76,1.33-1.44,2.73-2.03,4.19-.17.43-.34.87-.5,1.3,0,0-.24.58-.5,1.32-.13.09-.26.2-.4.33,0,0-.02,0-.02.02-13.38,9.29-15.24,28.22-6.17,43.57-7.42-8.52-13.1-25.07-13.84-35.51-.67-9.37.59-18.45,3.44-26.81.05-.14.09-.29.15-.42,6.07-17.47,16.74-27.81,26.87-33.9,11.73-7.06,22.76-8.44,25.1-8.6,27.47-1.96,51.26,17.75,53.13,44.02Z"/>
  <path class="cls-4" d="m248.33,99.31c-9.74,5.53-17.49,11.91-31.55-10.27-10.4-16.41-13.55-31.62-25.26-40.96-29.79-23.78-32.02,20.78-31.92,32.1.38,45.28,5.09,76.32,5.82,111.24,1.19,56.95-18.09,93.64-66.91,84.24,6.43,1.24,11.42-6.25,13.72-12.66,0,0-.03.01-.03.01.1-.24.18-.49.27-.73.08-.21.15-.42.22-.63.14-.41.26-.83.37-1.23.1-.36.19-.72.27-1.07.08-.36.15-.71.22-1.07,3.65-19.64-17.04-36.77-36.83-33.03-5.14.87-9.48,2.65-13,5.11,0,0-.02,0-.02.02-13.38,9.29-15.24,28.22-6.17,43.57,0,0,0,.02,0,.02,2.53,4.28,5.91,8.29,10.14,11.73,30.89,25.14,88.53,9.71,105.46-26.02,9.35-19.74,12.47-46.76,10.39-96.63-1.83-44.02,2.21-71.26,13.12-61.16,18.54,17.17,36.61,31.84,51.26,10.62,1.54-2.22,2.73-4.69,3.35-7.32,1.32-5.63-1.12-6.89-2.92-5.87Zm-151.33,164.37c-.17,1.2-.53,2.37-1,3.43-1.04,2.36-2.56,4.26-3.45,5.26-.44.48-.73.75-.73.75,0,0-2.73-1.95-4.74-5-1.07-1.63-1.94-3.56-2.09-5.68-.04-.51-.05-1-.04-1.49,0-5.47,2.23-9.84,5.29-10.06,2.77-.2,5.34,3.05,6.39,7.66,0,0,0,0,0,.02.22.95.37,1.96.44,3.01.05.71.02,1.41-.08,2.09Z"/>
  <text class="cls-2" transform="translate(231.18 278.48)"><tspan x="0" y="0">Finde deinen Rhythmus</tspan></text>
</svg>